#!OML:ASF F:\VICON\USERDATA\INSTALL\rory3\rory3.ASF
:FULLY-SPECIFIED
:DEGREES
203
root -2.09925 18.5508 -0.717285 -158.223 3.72846 -170.007
lowerback -11.1038 1.77876 7.04953
upperback -12.4617 4.44909 2.47987
thorax -6.88938 2.79926 -1.19396
lowerneck -12.2877 2.26704 -2.82645
upperneck 38.23 -1.83008 3.81923
head 15.5565 -2.3075 1.38356
rclavicle 7.60351e-015 -8.74653e-015
rhumerus -16.8061 2.93448 2.13144
rradius 17.8229
rwrist 37.7662
rhand -24.7028 37.2797
rfingers 7.12502
rthumb 1.79865 7.30749
lclavicle 7.60351e-015 -8.74653e-015
lhumerus -5.38789 -16.9611 -3.85535
lradius 28.9121
lwrist -46.6937
lhand -32.5425 -0.873155
lfingers 7.12502
lthumb -5.7725 29.0282
rfemur -216.426 -79.7331 161.862
rtibia 137.842
rfoot 58.311 -30.0404
rtoes 46.928
lfemur -36.1429 -1.48005 -16.8254
ltibia 36.5831
lfoot -30.8206 18.1756
ltoes 49.1471
204
root -2.10963 18.543 -0.774632 -158.35 3.63606 -170.416
lowerback -10.8877 1.73328 6.6526
upperback -12.1697 4.29946 2.43866
thorax -6.68981 2.71697 -1.02437
lowerneck -12.6952 2.27996 -2.8537
upperneck 38.716 -1.89284 3.75811
head 15.9064 -2.37144 1.34712
rclavicle -3.58931e-014 6.4605e-015
rhumerus -15.5409 0.364608 2.69229
rradius 17.6218
rwrist 38.3496
rhand -23.9967 32.8173
rfingers 7.12502
rthumb 2.48052 2.85199
lclavicle -3.58931e-014 6.4605e-015
lhumerus -4.53007 -15.6306 -4.32446
lradius 28.8877
lwrist -46.3031
lhand -32.8622 -0.27497
lfingers 7.12502
lthumb -6.08121 29.6178
rfemur -216.83 -80.0833 161.299
rtibia 138.001
rfoot 58.6521 -30.7512
rtoes 48.5945
lfemur -35.9418 -1.16266 -17.4652
ltibia 36.707
lfoot -29.1491 19.8955
ltoes 47.7623
205
root -2.11811 18.5364 -0.839982 -158.583 3.52676 -170.582
lowerback -10.4316 1.71029 6.49309
upperback -12.0702 4.25504 2.4207
thorax -6.83251 2.67763 -0.980594
lowerneck -12.74 2.37252 -2.76665
upperneck 39.2762 -1.99754 3.77827
head 16.2158 -2.45967 1.31086
rclavicle -1.94809e-014 -1.33186e-014
rhumerus -14.2413 -2.61104 3.08307
rradius 17.3952
rwrist 38.9267
rhand -22.8416 27.9287
rfingers 7.12502
rthumb 3.59608 -2.02067
lclavicle -1.94809e-014 -1.33186e-014
lhumerus -3.36092 -14.7965 -4.7762
lradius 28.6966
lwrist -45.6479
lhand -33.3298 0.155334
lfingers 7.12502
lthumb -6.53262 30.0346
rfemur -215.316 -80.8047 159.302
rtibia 137.968
rfoot 59.1685 -30.6577
rtoes 49.1526
lfemur -35.5354 -0.710217 -17.8718
ltibia 36.7676
lfoot -27.898 20.8496
ltoes 46.8742
206
root -2.13042 18.5277 -0.909971 -158.853 3.30068 -170.537
lowerback -9.87487 1.66052 6.64718
upperback -11.9985 4.18758 2.47034
thorax -7.06176 2.60865 -1.04676
lowerneck -13.0965 2.5715 -2.42633
upperneck 40.1995 -1.97961 3.51383
head 16.7979 -2.51749 1.11654
rclavicle 6.98231e-015 -5.96354e-015
rhumerus -12.8663 -6.11599 3.34119
rradius 17.2181
rwrist 39.4479
rhand -21.6263 23.4246
rfingers 7.12502
rthumb 4.76964 -6.50171
lclavicle 6.98231e-015 -5.96354e-015
lhumerus -2.05949 -14.1439 -5.11923
lradius 28.2689
lwrist -44.5764
lhand -33.2779 1.75962
lfingers 7.12502
lthumb -6.48253 31.6404
rfemur -210.955 -81.9184 154.923
rtibia 137.646
rfoot 60.1558 -29.1087
rtoes 48.4026
lfemur -35.0031 -0.330991 -18.017
ltibia 36.7357
lfoot -28.0115 20.205
ltoes 47.6429
207
root -2.13284 18.5197 -0.964777 -159.125 3.22836 -170.778
lowerback -9.28863 1.59859 6.2934
upperback -11.7997 4.0701 2.5027
thorax -7.17991 2.53793 -0.846965
lowerneck -13.8917 2.81486 -1.92137
upperneck 41.2846 -1.84902 3.04732
head 17.6049 -2.51779 0.813924
rclavicle -3.39176e-015 -2.55438e-014
rhumerus -11.3466 -12.3287 3.58633
rradius 16.7703
rwrist 41.891
rhand -20.3319 18.7743
rfingers 7.12502
rthumb 6.01941 -11.1202
lclavicle -3.39176e-015 -2.55438e-014
lhumerus -1.00627 -13.343 -5.44214
lradius 27.7842
lwrist -43.3884
lhand -33.1863 3.69065
lfingers 7.12502
lthumb -6.39405 33.5741
rfemur -202.797 -82.8865 146.535
rtibia 137.377
rfoot 59.4383 -31.3012
rtoes 50.0172
lfemur -34.494 -0.0900225 -18.4187
ltibia 36.623
lfoot -28.1378 19.7294
ltoes 48.247
208
root -2.12654 18.5175 -1.00512 -159.324 3.27932 -171.247
lowerback -8.62781 1.47054 5.51851
upperback -11.6946 3.90655 2.57149
thorax -7.46645 2.4814 -0.38508
lowerneck -14.0706 2.9954 -1.79031
upperneck 41.9278 -1.75458 2.82259
head 18.0244 -2.55343 0.682418
rclavicle 9.8212e-015 3.2551e-015
rhumerus -9.67929 -18.7685 3.43658
rradius 16.4093
rwrist 43.765
rhand -19.3278 14.4326
rfingers 7.12502
rthumb 6.98877 -15.432
lclavicle 9.8212e-015 3.2551e-015
lhumerus -0.277993 -12.5092 -5.62862
lradius 27.1347
lwrist -42.0941
lhand -33.2442 5.45203
lfingers 7.12502
lthumb -6.44995 35.3338
rfemur -187.704 -83.4132 130.987
rtibia 137.186
rfoot 57.0819 -36.5187
rtoes 52.9475
lfemur -34.1209 0.146365 -19.0467
ltibia 36.4403
lfoot -27.2676 20.8817
ltoes 47.4009
